<?xml version="1.0" encoding="UTF-8"?>
<svg width="586px" height="583px" viewBox="0 0 586 583" version="1.1" xmlns="http://www.w3.org/2000/svg" xmlns:xlink="http://www.w3.org/1999/xlink">
    <!-- Generator: Sketch 62 (91390) - https://sketch.com -->
    <title>sb-awesome-v3</title>
    <desc>Created with Sketch.</desc>
    <g id="Page-1" stroke="none" stroke-width="1" fill="none" fill-rule="evenodd">
        <g id="Artboard" transform="translate(-2228.000000, -290.000000)">
            <g id="sb-awesome-v3" transform="translate(2228.000000, 290.000000)">
                <g id="Group-2" fill-rule="nonzero">
                    <g id="icon" transform="translate(89.000000, 0.000000)" fill="#09B3AF">
                        <path d="M389.689298,0 L21.127733,0 C9.39010357,0 0,9.37621832 0,20.6276803 L0,389.11306 C0,400.364522 9.39010357,407.396686 20.6582278,407.396686 L75.1208285,407.396686 L75.1208285,481 L142.729574,407.865497 L389.689298,407.865497 C400.957422,407.865497 408,400.833333 408,389.11306 L408,21.0964912 C408,9.84502924 400.957422,0.468810916 389.219793,0.468810916 L389.689298,0 Z" id="Shape"></path>
                    </g>
                    <g id="Group" transform="translate(0.000000, 203.000000)">
                        <path d="M50.9,316 C54.9,316 58.2,317.4 61,320.2 C63.8,323 65.2,326.4 65.2,330.3 L65.2,379.9 L14.5,379.9 C10.5,379.9 7.2,378.5 4.4,375.7 C1.6,372.9 0.2,369.5 0.2,365.6 L0.2,342 L53.3,342 L53.3,330.3 C53.3,329.6 53.1,329.1 52.6,328.6 C52.1,328.1 51.6,327.9 50.9,327.9 L0.2,327.9 L0.2,316 L50.9,316 Z M53.3,368 L53.3,353.9 L12.1,353.9 L12.1,365.6 C12.1,366.3 12.3,366.8 12.8,367.3 C13.3,367.8 13.8,368 14.5,368 L53.3,368 L53.3,368 Z M168,316 L180.7,316 L156.7,379.9 L147,379.9 L125.5,332.4 L105.2,379.9 L105,379.8 L105.1,379.9 L95.5,379.9 L70.4,316 L83,316 L100.3,358.4 L118.7,316 L132.3,316 L151.8,358.4 L168,316 Z M235.2,316 C239.2,316 242.5,317.4 245.3,320.2 C248.1,323 249.5,326.4 249.5,330.3 L249.5,353.9 L196.4,353.9 L196.4,365.6 C196.4,366.3 196.6,366.8 197.1,367.3 C197.6,367.8 198.1,368 198.8,368 L249.5,368 L249.5,379.9 L198.8,379.9 C194.8,379.9 191.5,378.5 188.7,375.7 C185.9,372.9 184.5,369.5 184.5,365.6 L184.5,330.3 C184.5,326.3 185.9,323 188.7,320.2 C191.5,317.4 194.9,316 198.8,316 L235.2,316 L235.2,316 Z M196.4,342 L237.6,342 L237.6,330.3 C237.6,329.6 237.4,329.1 236.9,328.6 C236.4,328.1 235.9,327.9 235.2,327.9 L198.8,327.9 C198.1,327.9 197.6,328.1 197.1,328.6 C196.6,329.1 196.4,329.6 196.4,330.3 L196.4,342 L196.4,342 Z M325.4,330.4 L325.4,332.8 L313.5,332.8 L313.5,330.4 C313.5,329.7 313.3,329.2 312.8,328.7 C312.3,328.2 311.8,328 311.1,328 L274.7,328 C274,328 273.5,328.2 273,328.7 C272.5,329.2 272.3,329.7 272.3,330.4 L272.3,339.7 C272.3,340.4 272.5,340.9 273,341.4 C273.5,341.9 274,342.1 274.7,342.1 L311.1,342.1 C315.1,342.1 318.4,343.5 321.2,346.3 C324,349.1 325.4,352.5 325.4,356.4 L325.4,365.7 C325.4,369.7 324,373 321.2,375.8 C318.4,378.6 315,380 311.1,380 L274.7,380 C270.7,380 267.4,378.6 264.6,375.8 C261.8,373 260.4,369.6 260.4,365.7 L260.4,363.3 L272.3,363.3 L272.3,365.7 C272.3,366.4 272.5,366.9 273,367.4 C273.5,367.9 274,368.1 274.7,368.1 L311.1,368.1 C311.8,368.1 312.3,367.9 312.8,367.4 C313.3,366.9 313.5,366.4 313.5,365.7 L313.5,356.4 C313.5,355.7 313.3,355.2 312.8,354.7 C312.3,354.2 311.8,354 311.1,354 L274.7,354 C270.7,354 267.4,352.6 264.6,349.8 C261.8,347 260.4,343.6 260.4,339.7 L260.4,330.4 C260.4,326.4 261.8,323.1 264.6,320.3 C267.4,317.5 270.8,316.1 274.7,316.1 L311.1,316.1 C315.1,316.1 318.4,317.5 321.2,320.3 C324,323 325.4,326.4 325.4,330.4 Z M350.6,316 L387,316 C391,316 394.3,317.4 397.1,320.2 C399.9,323 401.3,326.4 401.3,330.3 L401.3,365.6 C401.3,369.6 399.9,372.9 397.1,375.7 C394.3,378.5 390.9,379.9 387,379.9 L350.6,379.9 C346.6,379.9 343.3,378.5 340.5,375.7 C337.7,372.9 336.3,369.5 336.3,365.6 L336.3,330.3 C336.3,326.3 337.7,323 340.5,320.2 C343.3,317.4 346.7,316 350.6,316 L350.6,316 Z M387,327.9 L350.6,327.9 C349.9,327.9 349.4,328.1 348.9,328.6 C348.4,329.1 348.2,329.6 348.2,330.3 L348.2,365.6 C348.2,366.3 348.4,366.8 348.9,367.3 C349.4,367.8 349.9,368 350.6,368 L387,368 C387.7,368 388.2,367.8 388.7,367.3 C389.2,366.8 389.4,366.3 389.4,365.6 L389.4,330.3 C389.4,329.6 389.2,329.1 388.7,328.6 C388.2,328.2 387.7,327.9 387,327.9 Z M494.5,316 C498.5,316 501.8,317.4 504.6,320.2 C507.4,323 508.8,326.4 508.8,330.3 L508.8,379.9 L497,379.9 L497,330.3 C497,329.6 496.8,329.1 496.3,328.6 C495.8,328.1 495.2,327.9 494.5,327.9 L469.3,327.9 C468.6,327.9 468.1,328.1 467.6,328.6 C467.1,329.1 466.9,329.6 466.9,330.3 L466.9,379.9 L455,379.9 L455,330.3 C455,329.6 454.8,329.1 454.3,328.6 C453.8,328.1 453.3,327.9 452.6,327.9 L427.3,327.9 C426.6,327.9 426.1,328.1 425.6,328.6 C425.1,329.1 424.9,329.6 424.9,330.3 L424.9,379.9 L413,379.9 L413,316 L494.5,316 Z M571,316 C575,316 578.3,317.4 581.1,320.2 C583.9,323 585.3,326.4 585.3,330.3 L585.3,353.9 L532.2,353.9 L532.2,365.6 C532.2,366.3 532.4,366.8 532.9,367.3 C533.4,367.8 533.9,368 534.6,368 L585.3,368 L585.3,379.9 L534.6,379.9 C530.6,379.9 527.3,378.5 524.5,375.7 C521.7,372.9 520.3,369.5 520.3,365.6 L520.3,330.3 C520.3,326.3 521.7,323 524.5,320.2 C527.3,317.4 530.7,316 534.6,316 L571,316 L571,316 Z M532.2,342 L573.4,342 L573.4,330.3 C573.4,329.6 573.2,329.1 572.7,328.6 C572.2,328.1 571.7,327.9 571,327.9 L534.6,327.9 C533.9,327.9 533.4,328.1 532.9,328.6 C532.4,329.1 532.2,329.6 532.2,330.3 L532.2,342 L532.2,342 Z" id="Shape" fill="#494368"></path>
                        <polygon id="Path" fill="#FC60A8" points="467 81 377.769231 0.0588235294 365.217436 13.5882353 439.57641 81 146.483077 81 220.842051 13.5294118 208.290256 0 119.059487 81 119 81"></polygon>
                    </g>
                </g>
                <path d="M416.714614,298.632554 C412.019563,307.07115 404.976985,314.103314 396.525892,319.260234 C387.605293,324.885965 377.745685,330.042885 366.47756,332.38694 C355.209436,335.199805 343.002301,337.54386 330.325662,337.54386 L164.120829,337.54386 L164.120829,75.0097466 L352.86191,75.0097466 C362.252014,75.0097466 370.233602,76.8849903 377.745685,81.1042885 C384.788262,84.8547758 391.361335,90.0116959 396.525892,96.1062378 C407.04442,108.914188 412.697593,125.018508 412.489068,141.580897 C412.489068,153.769981 409.202532,165.490253 403.098964,176.741715 C396.771098,188.058866 386.864196,196.961893 374.928654,202.057505 C389.952819,206.276803 401.690449,213.777778 410.611047,224.560429 C419.06214,235.811891 423.287687,250.345029 423.287687,268.628655 C423.287687,280.348928 420.940161,290.193957 416.245109,298.632554 L416.714614,298.632554 Z" id="Shape-path" fill="#FFFFFF"></path>
                <path d="M332.284344,230 L235,230 L235,277 L329.945779,277 C335.558337,277 340.703182,274.65 344.912601,270.89 C348.654306,267.13 350.992872,261.49 350.992872,254.44 C351.128525,248.391433 349.324774,242.459382 345.848027,237.52 C342.106322,232.82 337.896903,230 332.284344,230 Z M334.95614,170.255556 C339.140351,167.122222 341,160.333333 341,151.455556 C341,143.622222 339.140351,137.877778 335.885965,134.222222 C332.631579,131.088889 328.447368,129 323.798246,129 L235,129 L235,176 L321.938596,176 C326.587719,176 331.236842,173.388889 334.95614,170.255556 Z" id="Shape" fill="#09B3AF" fill-rule="nonzero"></path>
                <path d="M467,284 L439.57641,284 L146.483077,284 L119.059487,284 L119,284 L119,337.837674 C119,362.17444 142.497436,382 171.348718,382 L226.374359,382 C255.225641,382 278.723077,362.17444 278.723077,337.837674 L278.723077,302.460327 L307.276923,302.460327 L307.276923,337.837674 C307.276923,362.17444 330.774359,382 359.625641,382 L414.651282,382 C443.502564,382 467,362.17444 467,337.837674 L467,284 Z" id="Path" fill="#FC60A8" fill-rule="nonzero"></path>
            </g>
        </g>
    </g>
</svg>